<svg width="28" height="25" viewBox="0 0 28 25" fill="none" xmlns="http://www.w3.org/2000/svg">
<path fill-rule="evenodd" clip-rule="evenodd" d="M11.01 0H21.9322C25.2816 0 28 2.7184 28 6.06785V13.3493C28 16.6987 25.2816 19.4171 21.9322 19.4171H11.01C7.66059 19.4171 4.94219 16.6987 4.94219 13.3493V6.06785C4.94219 2.7184 7.66059 0 11.01 0ZM21.9322 2.42714H11.01C9.42027 2.42714 8.08534 3.44654 7.58777 4.85428H25.3544C24.8447 3.44654 23.5098 2.42714 21.9322 2.42714ZM11.01 16.99H21.9322C23.9346 16.99 25.5729 15.3517 25.5729 13.3493V7.28142H7.36933V13.3493C7.36933 15.3517 9.00765 16.99 11.01 16.99ZM18.2915 24.2714C18.9589 24.2714 19.505 23.7253 19.505 23.0578V23.0457C19.505 22.3782 18.9589 21.8321 18.2915 21.8321H6.09189C4.0895 21.8321 2.45118 20.1938 2.45118 18.1914V9.27168V6.90863C2.45218 6.88827 2.45269 6.86778 2.45269 6.84717C2.45269 6.16988 1.90364 5.62083 1.22635 5.62083C0.549053 5.62083 0 6.16988 0 6.84717C0 6.93029 0.00826885 7.01147 0.0240288 7.08995L0.0240354 9.28381V18.2036C0.0240354 21.553 2.74243 24.2714 6.09189 24.2714H18.2915Z" fill="#882EFD"/>
</svg>
