<svg width="24" height="24" viewBox="0 0 24 24" fill="none" xmlns="http://www.w3.org/2000/svg">
<mask id="mask0_97_278" style="mask-type:alpha" maskUnits="userSpaceOnUse" x="0" y="0" width="24" height="24">
<rect width="24" height="24" fill="#D9D9D9"/>
</mask>
<g mask="url(#mask0_97_278)">
<circle cx="11.9999" cy="12" r="10.2857" fill="#882EFD"/>
<path d="M16.2857 11.9999C16.2857 12.1818 16.2134 12.3562 16.0848 12.4848C15.9562 12.6134 15.7818 12.6857 15.5999 12.6857H12.6857V15.5999C12.6857 15.7818 12.6134 15.9562 12.4848 16.0848C12.3562 16.2134 12.1818 16.2857 11.9999 16.2857C11.8181 16.2857 11.6437 16.2134 11.5151 16.0848C11.3865 15.9562 11.3142 15.7818 11.3142 15.5999V12.6857H8.39995C8.21808 12.6857 8.04367 12.6134 7.91507 12.4848C7.78648 12.3562 7.71423 12.1818 7.71423 11.9999C7.71423 11.8181 7.78648 11.6437 7.91507 11.5151C8.04367 11.3865 8.21808 11.3142 8.39995 11.3142H11.3142V8.39995C11.3142 8.21808 11.3865 8.04367 11.5151 7.91507C11.6437 7.78648 11.8181 7.71423 11.9999 7.71423C12.1818 7.71423 12.3562 7.78648 12.4848 7.91507C12.6134 8.04367 12.6857 8.21808 12.6857 8.39995V11.3142H15.5999C15.7818 11.3142 15.9562 11.3865 16.0848 11.5151C16.2134 11.6437 16.2857 11.8181 16.2857 11.9999Z" fill="white"/>
</g>
</svg>
