<svg width="24" height="24" viewBox="0 0 24 24" fill="none" xmlns="http://www.w3.org/2000/svg">
<mask id="mask0_6_1936" style="mask-type:alpha" maskUnits="userSpaceOnUse" x="0" y="0" width="24" height="24">
<rect width="24" height="24" fill="#D9D9D9"/>
</mask>
<g mask="url(#mask0_6_1936)">
<circle cx="12" cy="11.9999" r="12" fill="#882EFD"/>
<path d="M19 11.9998C19 12.2544 18.8989 12.4985 18.7189 12.6786C18.5389 12.8586 18.2948 12.9598 18.0403 12.9598H12.9597V18.0398C12.9597 18.2944 12.8586 18.5385 12.6786 18.7186C12.4986 18.8986 12.2545 18.9998 12 18.9998C11.7455 18.9998 11.5014 18.8986 11.3214 18.7186C11.1414 18.5385 11.0403 18.2944 11.0403 18.0398V12.9598H5.95967C5.70515 12.9598 5.46106 12.8586 5.28108 12.6786C5.10111 12.4985 5 12.2544 5 11.9998C5 11.7451 5.10111 11.501 5.28108 11.3209C5.46106 11.1409 5.70515 11.0398 5.95967 11.0398H11.0403V5.95976C11.0403 5.70515 11.1414 5.46097 11.3214 5.28093C11.5014 5.1009 11.7455 4.99976 12 4.99976C12.2545 4.99976 12.4986 5.1009 12.6786 5.28093C12.8586 5.46097 12.9597 5.70515 12.9597 5.95976V11.0398H18.0403C18.2948 11.0398 18.5389 11.1409 18.7189 11.3209C18.8989 11.501 19 11.7451 19 11.9998Z" fill="white"/>
</g>
</svg>
