<svg width="24" height="24" viewBox="0 0 24 24" fill="none" xmlns="http://www.w3.org/2000/svg">
<mask id="mask0_2453_7627" style="mask-type:alpha" maskUnits="userSpaceOnUse" x="0" y="0" width="24" height="24">
<rect width="24" height="24" fill="#D9D9D9"/>
</mask>
<g mask="url(#mask0_2453_7627)">
<path d="M20.0843 13.4214L18.5416 7.5626C18.0895 5.84623 17.1067 4.33865 15.7497 3.2795C14.3926 2.22035 12.7391 1.67041 11.0519 1.7171C9.36473 1.76379 7.74077 2.40443 6.43814 3.53719C5.13552 4.66995 4.22898 6.22981 3.86263 7.96884L2.66827 13.6382C2.53634 14.2646 2.53939 14.9144 2.67719 15.5394C2.815 16.1644 3.08403 16.7488 3.46444 17.2494C3.84485 17.75 4.32691 18.154 4.87504 18.4316C5.42317 18.7092 6.02337 18.8533 6.63133 18.8533H7.53583C7.72218 19.822 8.22007 20.6929 8.94514 21.3185C9.67021 21.9441 10.5779 22.2858 11.5143 22.2858C12.4508 22.2858 13.3584 21.9441 14.0835 21.3185C14.8086 20.6929 15.3065 19.822 15.4928 18.8533H16.1732C16.7991 18.8534 17.4165 18.7007 17.9771 18.4072C18.5378 18.1137 19.0266 17.6873 19.4054 17.1614C19.7841 16.6355 20.0426 16.0242 20.1605 15.3755C20.2784 14.7267 20.2518 14.0579 20.0843 13.4214ZM11.5143 20.5674C11.0123 20.5652 10.5232 20.3993 10.114 20.0925C9.7047 19.7857 9.39523 19.3529 9.22791 18.8533H13.8007C13.6334 19.3529 13.3239 19.7857 12.9147 20.0925C12.5054 20.3993 12.0163 20.5652 11.5143 20.5674ZM18.1121 16.1236C17.8859 16.4404 17.5927 16.6972 17.256 16.8735C16.9193 17.0498 16.5483 17.1408 16.1724 17.1392H6.63133C6.2666 17.1392 5.90653 17.0526 5.57772 16.886C5.2489 16.7194 4.95972 16.477 4.73153 16.1767C4.50334 15.8763 4.34196 15.5257 4.25931 15.1507C4.17666 14.7758 4.17483 14.386 4.25398 14.0101L5.44753 8.33994C5.73524 6.97399 6.44727 5.74876 7.47043 4.85901C8.4936 3.96927 9.76916 3.46608 11.0944 3.42943C12.4196 3.39279 13.7183 3.82479 14.7842 4.65677C15.8501 5.48874 16.622 6.67294 16.977 8.02112L18.5197 13.8799C18.6216 14.2616 18.6379 14.6631 18.5671 15.0526C18.4964 15.4421 18.3406 15.8088 18.1121 16.1236Z" fill="#1C1C1C"/>
</g>
</svg>
