<svg width="24" height="24" viewBox="0 0 24 24" fill="none" xmlns="http://www.w3.org/2000/svg">
<circle cx="12" cy="12" r="12" fill="#882EFD"/>
<path d="M19.6667 15.4707C19.6667 15.8252 19.5262 16.1653 19.2761 16.416C19.0261 16.6667 18.687 16.8076 18.3333 16.8076H6.33333C5.97971 16.8076 5.64057 16.6667 5.39052 16.416C5.14048 16.1653 5 15.8252 5 15.4707V8.11745C5 7.76287 5.14048 7.42281 5.39052 7.17209C5.64057 6.92136 5.97971 6.78051 6.33333 6.78051H9L10.3333 4.77509H14.3333L15.6667 6.78051H18.3333C18.687 6.78051 19.0261 6.92136 19.2761 7.17209C19.5262 7.42281 19.6667 7.76287 19.6667 8.11745V15.4707Z" stroke="white" stroke-linecap="round" stroke-linejoin="round"/>
<path d="M12.3334 14.1337C13.8062 14.1337 15.0001 12.9366 15.0001 11.4598C15.0001 9.98309 13.8062 8.78595 12.3334 8.78595C10.8607 8.78595 9.66675 9.98309 9.66675 11.4598C9.66675 12.9366 10.8607 14.1337 12.3334 14.1337Z" stroke="white" stroke-linecap="round" stroke-linejoin="round"/>
</svg>
