<svg width="20" height="20" viewBox="0 0 20 20" fill="none" xmlns="http://www.w3.org/2000/svg">
<mask id="mask0_2453_3400" style="mask-type:alpha" maskUnits="userSpaceOnUse" x="0" y="0" width="20" height="20">
<rect width="20" height="20" fill="#D9D9D9"/>
</mask>
<g mask="url(#mask0_2453_3400)">
<path d="M16.668 20C16.207 20 15.8359 19.625 15.8359 19.168V15.7969C15.8359 14.4375 14.7305 13.3359 13.3711 13.332H6.62891C5.26953 13.332 4.16797 14.4375 4.16406 15.7969V19.168C4.16406 19.6289 3.78906 20 3.33203 20C2.87109 20 2.5 19.625 2.5 19.168V15.7969C2.50391 13.5156 4.35156 11.668 6.62891 11.668H13.3672C15.6484 11.6719 17.4961 13.5195 17.4961 15.7969V19.168C17.5 19.625 17.125 20 16.668 20Z" fill="#1C1C1C"/>
<path d="M10 10C7.23828 10 5 7.76172 5 5C5 2.23828 7.23828 0 10 0C12.7617 0 15 2.23828 15 5C14.9961 7.76172 12.7617 9.99609 10 10ZM10 1.66797C8.16016 1.66797 6.66797 3.16016 6.66797 5C6.66797 6.83984 8.16016 8.33203 10 8.33203C11.8398 8.33203 13.332 6.83984 13.332 5C13.332 3.16016 11.8398 1.66797 10 1.66797Z" fill="#1C1C1C"/>
</g>
</svg>
