<svg width="20" height="20" viewBox="0 0 20 20" fill="none" xmlns="http://www.w3.org/2000/svg">
<path d="M9.15808 19.9999C6.7292 19.9999 4.39981 19.0342 2.68234 17.3153C0.964866 15.5963 0 13.2648 0 10.8338C0 8.40283 0.964866 6.0714 2.68234 4.35242C4.39981 2.63344 6.7292 1.66772 9.15808 1.66772H9.9929L10.0038 2.50329L9.9929 9.99827H18.3161V10.8338C18.3135 13.264 17.3478 15.5939 15.6309 17.3123C13.914 19.0307 11.5861 19.9973 9.15808 19.9999ZM8.33326 3.3848C6.93156 3.54042 5.60225 4.08904 4.49835 4.96752C3.39446 5.846 2.56086 7.01862 2.09351 8.3504C1.62616 9.68219 1.54406 11.119 1.85667 12.4954C2.16927 13.8718 2.86386 15.1319 3.86049 16.1307C4.85712 17.1294 6.11527 17.8261 7.49012 18.1406C8.86496 18.4552 10.3006 18.3748 11.6318 17.9086C12.963 17.4425 14.1356 16.6095 15.0146 15.5058C15.8937 14.402 16.4434 13.0721 16.6006 11.6694H8.32325L8.33326 3.3848Z" fill="#1C1C1C"/>
<path d="M13.3481 1.88336C14.4948 2.18363 15.5411 2.78397 16.3794 3.62272C17.2177 4.46148 17.8179 5.50843 18.1183 6.65608H13.3481V1.88336ZM11.6784 0V8.32721H20C19.9892 6.12172 19.109 4.00966 17.5507 2.45029C15.9923 0.890915 13.882 0.0103241 11.6784 0Z" fill="#1C1C1C"/>
</svg>
