<svg width="16" height="16" viewBox="0 0 16 16" fill="none" xmlns="http://www.w3.org/2000/svg">
<circle cx="8" cy="8" r="8" fill="#EA4242"/>
<path d="M10.8033 10.7992C11.049 10.5489 11.1862 10.2119 11.1851 9.86114L11.1898 6.81178C11.1893 6.63566 11.1191 6.4669 10.9946 6.34236C10.87 6.21782 10.7013 6.14762 10.5252 6.1471C10.4372 6.14674 10.3499 6.16381 10.2686 6.19732C10.1872 6.23083 10.1133 6.28012 10.051 6.34236C9.98879 6.40459 9.9395 6.47852 9.90598 6.5599C9.87247 6.64128 9.8554 6.72849 9.85576 6.81649L9.86048 8.91362L6.14643 5.19957C6.02141 5.07455 5.85184 5.00431 5.67503 5.00431C5.49822 5.00431 5.32865 5.07455 5.20362 5.19957C5.0786 5.3246 5.00836 5.49417 5.00836 5.67098C5.00836 5.84779 5.0786 6.01736 5.20362 6.14238L8.91767 9.85643L6.81583 9.85643C6.63892 9.85581 6.46901 9.92548 6.34347 10.0501C6.21793 10.1748 6.14706 10.3442 6.14643 10.5211C6.14581 10.698 6.21548 10.8679 6.34014 10.9935C6.46479 11.119 6.6342 11.1899 6.81111 11.1905L9.86048 11.1858C10.2135 11.1868 10.5526 11.0478 10.8033 10.7992Z" fill="white"/>
</svg>
