<svg width="24" height="24" viewBox="0 0 24 24" fill="none" xmlns="http://www.w3.org/2000/svg">
<mask id="mask0_2453_7643" style="mask-type:alpha" maskUnits="userSpaceOnUse" x="0" y="0" width="24" height="24">
<rect width="24" height="24" fill="#D9D9D9"/>
</mask>
<g mask="url(#mask0_2453_7643)">
<path d="M16.7072 9.29311C16.6144 9.20019 16.5041 9.12647 16.3827 9.07618C16.2614 9.02589 16.1313 9 15.9999 9C15.8685 9 15.7384 9.02589 15.6171 9.07618C15.4957 9.12647 15.3854 9.20019 15.2926 9.29311L12.2353 12.3497C12.1728 12.4122 12.088 12.4473 11.9996 12.4473C11.9113 12.4473 11.8265 12.4122 11.764 12.3497L8.70738 9.29311C8.51988 9.10552 8.26553 9.0001 8.0003 9.00003C7.73507 8.99997 7.48067 9.10528 7.29308 9.29278C7.10549 9.48028 7.00006 9.73463 7 9.99986C6.99994 10.2651 7.10524 10.5195 7.29275 10.7071L10.35 13.7644C10.5667 13.981 10.8239 14.1529 11.107 14.2702C11.3901 14.3875 11.6936 14.4478 12 14.4478C12.3064 14.4478 12.6098 14.3875 12.8929 14.2702C13.1761 14.1529 13.4333 13.981 13.6499 13.7644L16.7072 10.7071C16.8947 10.5196 17 10.2653 17 10.0001C17 9.73494 16.8947 9.48064 16.7072 9.29311Z" fill="#1C1C1C"/>
</g>
</svg>
