<svg width="20" height="20" viewBox="0 0 20 20" fill="none" xmlns="http://www.w3.org/2000/svg">
<g clip-path="url(#clip0_6_947)">
<path d="M19.0168 7.93525C17.776 5.91445 14.9536 2.52405 10 2.52405C5.04644 2.52405 2.22404 5.91445 0.983241 7.93525C0.599663 8.55565 0.396484 9.27064 0.396484 10C0.396484 10.7295 0.599663 11.4444 0.983241 12.0648C2.22404 14.0856 5.04644 17.476 10 17.476C14.9536 17.476 17.776 14.0856 19.0168 12.0648C19.4004 11.4444 19.6036 10.7295 19.6036 10C19.6036 9.27064 19.4004 8.55565 19.0168 7.93525ZM17.6528 11.2272C16.5872 12.96 14.1752 15.876 10 15.876C5.82484 15.876 3.41284 12.96 2.34724 11.2272C2.11935 10.8585 1.99864 10.4335 1.99864 10C1.99864 9.56655 2.11935 9.14161 2.34724 8.77285C3.41284 7.04005 5.82484 4.12405 10 4.12405C14.1752 4.12405 16.5872 7.03685 17.6528 8.77285C17.8807 9.14161 18.0014 9.56655 18.0014 10C18.0014 10.4335 17.8807 10.8585 17.6528 11.2272Z" fill="#882EFD"/>
<path d="M10 6C9.20888 6 8.43552 6.2346 7.77772 6.67412C7.11992 7.11365 6.60723 7.73836 6.30448 8.46927C6.00173 9.20017 5.92252 10.0044 6.07686 10.7804C6.2312 11.5563 6.61216 12.269 7.17157 12.8284C7.73098 13.3878 8.44372 13.7688 9.21964 13.9231C9.99556 14.0775 10.7998 13.9983 11.5307 13.6955C12.2616 13.3928 12.8864 12.8801 13.3259 12.2223C13.7654 11.5645 14 10.7911 14 10C13.9987 8.93952 13.5769 7.92285 12.827 7.17298C12.0772 6.42311 11.0605 6.00127 10 6ZM10 12.4C9.52533 12.4 9.06131 12.2592 8.66663 11.9955C8.27196 11.7318 7.96434 11.357 7.78269 10.9184C7.60104 10.4799 7.55351 9.99734 7.64612 9.53178C7.73872 9.06623 7.9673 8.63859 8.30294 8.30294C8.63859 7.9673 9.06623 7.73872 9.53179 7.64612C9.99734 7.55351 10.4799 7.60104 10.9184 7.78269C11.357 7.96434 11.7318 8.27195 11.9955 8.66663C12.2592 9.06131 12.4 9.52533 12.4 10C12.4 10.6365 12.1471 11.247 11.6971 11.6971C11.247 12.1471 10.6365 12.4 10 12.4Z" fill="#882EFD"/>
</g>
<defs>
<clipPath id="clip0_6_947">
<rect width="19.2" height="19.2" fill="white" transform="translate(0.400024 0.400024)"/>
</clipPath>
</defs>
</svg>
