<svg width="28" height="28" viewBox="0 0 28 28" fill="none" xmlns="http://www.w3.org/2000/svg">
<path d="M14 0C11.2311 0 8.52431 0.821086 6.22202 2.35943C3.91973 3.89776 2.12532 6.08427 1.06569 8.64243C0.006066 11.2006 -0.271181 14.0155 0.269012 16.7313C0.809205 19.447 2.14258 21.9416 4.10051 23.8995C6.05844 25.8574 8.55301 27.1908 11.2687 27.731C13.9845 28.2712 16.7994 27.9939 19.3576 26.9343C21.9157 25.8747 24.1022 24.0803 25.6406 21.778C27.1789 19.4757 28 16.7689 28 14C27.996 10.2882 26.5197 6.72958 23.8951 4.10494C21.2704 1.4803 17.7118 0.00401459 14 0ZM17.759 8.16667H10.241C11.2312 6.21165 12.4972 4.40902 14 2.814C15.5034 4.40857 16.7694 6.21128 17.759 8.16667ZM18.6923 10.5C19.0509 11.6325 19.2381 12.8122 19.2477 14C19.2381 15.1878 19.0509 16.3675 18.6923 17.5H9.30534C8.94676 16.3675 8.75958 15.1878 8.75 14C8.75958 12.8122 8.94676 11.6325 9.30534 10.5H18.6923ZM10.9667 2.74867C9.62227 4.39341 8.51269 6.21681 7.66967 8.16667H3.91184C5.45867 5.5025 7.9936 3.55571 10.9667 2.74867ZM2.33334 14C2.33323 12.8127 2.5146 11.6324 2.87117 10.5H6.88334C6.58089 11.6423 6.42409 12.8183 6.41667 14C6.42409 15.1817 6.58089 16.3577 6.88334 17.5H2.87117C2.5146 16.3676 2.33323 15.1873 2.33334 14ZM3.91184 19.8333H7.66967C8.51269 21.7832 9.62227 23.6066 10.9667 25.2513C7.9936 24.4443 5.45867 22.4975 3.91184 19.8333ZM10.241 19.8333H17.759C16.7688 21.7883 15.5028 23.591 14 25.186C12.4966 23.5914 11.2306 21.7887 10.241 19.8333ZM17.0392 25.2513C18.3815 23.6062 19.4891 21.7828 20.3303 19.8333H24.0882C22.5427 22.4963 20.0101 24.4429 17.0392 25.2513ZM25.6667 14C25.6668 15.1873 25.4854 16.3676 25.1288 17.5H21.1167C21.4191 16.3577 21.5759 15.1817 21.5833 14C21.5759 12.8183 21.4191 11.6423 21.1167 10.5H25.1265C25.4839 11.6323 25.666 12.8126 25.6667 14ZM20.3303 8.16667C19.4891 6.21715 18.3815 4.39377 17.0392 2.74867C20.0101 3.55708 22.5427 5.50371 24.0882 8.16667H20.3303Z" fill="#882EFD"/>
</svg>
