<svg width="24" height="24" viewBox="0 0 24 24" fill="none" xmlns="http://www.w3.org/2000/svg">
<mask id="mask0_6_1830" style="mask-type:alpha" maskUnits="userSpaceOnUse" x="0" y="0" width="24" height="24">
<rect width="24" height="24" fill="#D9D9D9"/>
</mask>
<g mask="url(#mask0_6_1830)">
<path d="M19.5091 5.33333H16.9215C16.7278 4.39284 16.2152 3.54779 15.4702 2.9406C14.7251 2.33341 13.7932 2.00121 12.8315 2L11.162 2C10.2003 2.00121 9.26835 2.33341 8.52331 2.9406C7.77828 3.54779 7.2657 4.39284 7.07196 5.33333H4.48437C4.26299 5.33333 4.05068 5.42113 3.89414 5.57741C3.7376 5.73369 3.64966 5.94565 3.64966 6.16667C3.64966 6.38768 3.7376 6.59964 3.89414 6.75592C4.05068 6.9122 4.26299 7 4.48437 7H5.31907V17.8333C5.3204 18.938 5.76054 19.997 6.54294 20.7782C7.32534 21.5593 8.38613 21.9987 9.49262 22H14.5009C15.6074 21.9987 16.6681 21.5593 17.4505 20.7782C18.2329 19.997 18.6731 18.938 18.6744 17.8333V7H19.5091C19.7305 7 19.9428 6.9122 20.0993 6.75592C20.2559 6.59964 20.3438 6.38768 20.3438 6.16667C20.3438 5.94565 20.2559 5.73369 20.0993 5.57741C19.9428 5.42113 19.7305 5.33333 19.5091 5.33333ZM11.162 3.66667H12.8315C13.3492 3.6673 13.8541 3.82781 14.2768 4.1262C14.6996 4.42459 15.0196 4.84624 15.1928 5.33333H8.80064C8.97391 4.84624 9.29387 4.42459 9.71664 4.1262C10.1394 3.82781 10.6443 3.6673 11.162 3.66667ZM17.005 17.8333C17.005 18.4964 16.7412 19.1323 16.2716 19.6011C15.8019 20.0699 15.165 20.3333 14.5009 20.3333H9.49262C8.82848 20.3333 8.19155 20.0699 7.72193 19.6011C7.25232 19.1323 6.98849 18.4964 6.98849 17.8333V7H17.005V17.8333Z" fill="#1C1C1C"/>
<path d="M10.3262 16.9997C10.5475 16.9997 10.7599 16.9119 10.9164 16.7556C11.0729 16.5993 11.1609 16.3874 11.1609 16.1663V11.1663C11.1609 10.9453 11.0729 10.7334 10.9164 10.5771C10.7599 10.4208 10.5475 10.333 10.3262 10.333C10.1048 10.333 9.89247 10.4208 9.73594 10.5771C9.5794 10.7334 9.49146 10.9453 9.49146 11.1663V16.1663C9.49146 16.3874 9.5794 16.5993 9.73594 16.7556C9.89247 16.9119 10.1048 16.9997 10.3262 16.9997Z" fill="#1C1C1C"/>
<path d="M13.667 16.9997C13.8884 16.9997 14.1007 16.9119 14.2572 16.7556C14.4137 16.5993 14.5017 16.3874 14.5017 16.1663V11.1663C14.5017 10.9453 14.4137 10.7334 14.2572 10.5771C14.1007 10.4208 13.8884 10.333 13.667 10.333C13.4456 10.333 13.2333 10.4208 13.0768 10.5771C12.9202 10.7334 12.8323 10.9453 12.8323 11.1663V16.1663C12.8323 16.3874 12.9202 16.5993 13.0768 16.7556C13.2333 16.9119 13.4456 16.9997 13.667 16.9997Z" fill="#1C1C1C"/>
</g>
</svg>
