<svg width="18" height="18" viewBox="0 0 18 18" fill="none" xmlns="http://www.w3.org/2000/svg">
<path d="M8.96549 1.50025C10.975 1.50685 12.8983 2.31701 14.3068 3.75017H11.9654C11.5512 3.75017 11.2154 4.08594 11.2154 4.50014C11.2154 4.91434 11.5512 5.2501 11.9654 5.2501H15.0725C15.8415 5.24968 16.4648 4.62638 16.4652 3.8574V0.750246C16.4652 0.336048 16.1295 0.00028079 15.7153 0.00028079C15.3011 0.00028079 14.9653 0.336048 14.9653 0.750246V2.30871C11.2778 -1.01229 5.59625 -0.715162 2.27525 2.97237C0.9756 4.41549 0.178457 6.24085 0.00327911 8.17501C-0.0352509 8.59034 0.270212 8.95823 0.685535 8.99676C0.708035 8.99884 0.730639 8.99993 0.753279 9C1.13341 9.00485 1.45477 8.71957 1.49502 8.34151C1.84101 4.47219 5.08074 1.50534 8.96549 1.50025Z" fill="#882EFD"/>
<path d="M17.1782 9.00006C16.7981 8.99521 16.4767 9.28049 16.4365 9.65855C16.0786 13.7792 12.448 16.8296 8.32725 16.4717C6.54435 16.3168 4.87586 15.5286 3.62388 14.2499H5.96531C6.37951 14.2499 6.71528 13.9141 6.71528 13.4999C6.71528 13.0857 6.37951 12.75 5.96531 12.75H2.85816C2.08939 12.7495 1.46588 13.3724 1.46545 14.1412C1.46545 14.1416 1.46545 14.1421 1.46545 14.1427V17.2498C1.46545 17.664 1.80122 17.9998 2.21542 17.9998C2.62962 17.9998 2.96538 17.664 2.96538 17.2498V15.6914C6.65291 19.0124 12.3344 18.7152 15.6554 15.0277C16.9551 13.5846 17.7522 11.7592 17.9274 9.82501C17.966 9.40969 17.6605 9.04179 17.2452 9.00326C17.2229 9.00122 17.2006 9.00013 17.1782 9.00006Z" fill="#882EFD"/>
</svg>
