<svg width="24" height="24" viewBox="0 0 24 24" fill="none" xmlns="http://www.w3.org/2000/svg">
<mask id="mask0_6_1774" style="mask-type:alpha" maskUnits="userSpaceOnUse" x="0" y="0" width="24" height="24">
<rect width="24" height="24" fill="#D9D9D9"/>
</mask>
<g mask="url(#mask0_6_1774)">
<path d="M11.9619 4.6669C13.0673 4.67052 14.1611 4.89335 15.1798 5.32247C16.1986 5.75159 17.1221 6.37849 17.8969 7.1669H15.2953C15.0742 7.1669 14.8623 7.25469 14.706 7.41097C14.5497 7.56726 14.4619 7.77922 14.4619 8.00023C14.4619 8.22124 14.5497 8.43321 14.706 8.58949C14.8623 8.74577 15.0742 8.83356 15.2953 8.83356H18.7478C19.1581 8.83334 19.5516 8.67023 19.8418 8.38007C20.1319 8.0899 20.295 7.69642 20.2953 7.28606V3.83356C20.2953 3.61255 20.2075 3.40059 20.0512 3.24431C19.8949 3.08803 19.6829 3.00023 19.4619 3.00023C19.2409 3.00023 19.0289 3.08803 18.8727 3.24431C18.7164 3.40059 18.6286 3.61255 18.6286 3.83356V5.56523C17.2512 4.32477 15.5557 3.49224 13.732 3.16085C11.9083 2.82947 10.0283 3.01232 8.30257 3.68894C6.57687 4.36555 5.0736 5.50921 3.9611 6.99183C2.84859 8.47446 2.17079 10.2375 2.00359 12.0836C1.99282 12.1996 2.00635 12.3166 2.04331 12.4272C2.08026 12.5377 2.13984 12.6393 2.21823 12.7256C2.29663 12.8118 2.39213 12.8807 2.49865 12.928C2.60517 12.9753 2.72037 12.9999 2.83692 13.0002C3.04074 13.0028 3.2382 12.9293 3.39064 12.7939C3.54307 12.6586 3.63952 12.4713 3.66109 12.2686C3.8466 10.1942 4.80107 8.26415 6.33699 6.85759C7.87291 5.45104 9.87927 4.66964 11.9619 4.6669Z" fill="#1C1C1C"/>
<path d="M21.0881 13.0001C20.8843 12.9975 20.6868 13.071 20.5344 13.2064C20.3819 13.3417 20.2855 13.529 20.2639 13.7317C20.1262 15.3178 19.5363 16.831 18.5644 18.0919C17.5926 19.3528 16.2794 20.3085 14.7807 20.8455C13.282 21.3826 11.6607 21.4785 10.1092 21.1218C8.55766 20.7652 7.14099 19.971 6.02724 18.8334H8.62891C8.84992 18.8334 9.06188 18.7456 9.21816 18.5893C9.37444 18.433 9.46224 18.2211 9.46224 18.0001C9.46224 17.7791 9.37444 17.5671 9.21816 17.4108C9.06188 17.2545 8.84992 17.1667 8.62891 17.1667H5.17641C4.97316 17.1666 4.77188 17.2066 4.58407 17.2843C4.39627 17.362 4.22563 17.476 4.08191 17.6197C3.93819 17.7635 3.82421 17.9341 3.74648 18.1219C3.66875 18.3097 3.6288 18.511 3.62891 18.7142V22.1667C3.62891 22.3877 3.7167 22.5997 3.87298 22.756C4.02926 22.9123 4.24123 23.0001 4.46224 23.0001C4.68325 23.0001 4.89522 22.9123 5.0515 22.756C5.20778 22.5997 5.29557 22.3877 5.29557 22.1667V20.4351C6.67293 21.6755 8.36842 22.5081 10.1922 22.8394C12.0159 23.1708 13.8959 22.988 15.6216 22.3114C17.3473 21.6347 18.8506 20.4911 19.9631 19.0085C21.0756 17.5258 21.7534 15.7628 21.9206 13.9167C21.9313 13.8007 21.9178 13.6837 21.8809 13.5731C21.8439 13.4626 21.7843 13.361 21.7059 13.2747C21.6275 13.1885 21.532 13.1195 21.4255 13.0723C21.319 13.025 21.2046 13.0004 21.0881 13.0001Z" fill="#1C1C1C"/>
</g>
</svg>
