<svg width="4" height="20" viewBox="0 0 4 20" fill="none" xmlns="http://www.w3.org/2000/svg">
<path d="M1.66667 3.33333C2.58714 3.33333 3.33333 2.58714 3.33333 1.66667C3.33333 0.746192 2.58714 0 1.66667 0C0.746192 0 0 0.746192 0 1.66667C0 2.58714 0.746192 3.33333 1.66667 3.33333Z" fill="#1C1C1C"/>
<path d="M1.66667 11.6666C2.58714 11.6666 3.33333 10.9204 3.33333 9.99992C3.33333 9.07944 2.58714 8.33325 1.66667 8.33325C0.746192 8.33325 0 9.07944 0 9.99992C0 10.9204 0.746192 11.6666 1.66667 11.6666Z" fill="#1C1C1C"/>
<path d="M1.66667 20.0001C2.58714 20.0001 3.33333 19.2539 3.33333 18.3334C3.33333 17.4129 2.58714 16.6667 1.66667 16.6667C0.746192 16.6667 0 17.4129 0 18.3334C0 19.2539 0.746192 20.0001 1.66667 20.0001Z" fill="#1C1C1C"/>
</svg>
