<svg width="20" height="18" viewBox="0 0 20 18" fill="none" xmlns="http://www.w3.org/2000/svg">
<path d="M20 1.28571C20 1.99714 19.4463 2.57143 18.7603 2.57143H1.23967C0.553719 2.57143 0 1.99714 0 1.28571C0 0.574286 0.553719 0 1.23967 0H18.7603C19.4463 0 20 0.574286 20 1.28571ZM5.53719 15.4286H1.23967C0.553719 15.4286 0 16.0029 0 16.7143C0 17.4257 0.553719 18 1.23967 18H5.53719C6.22314 18 6.77686 17.4257 6.77686 16.7143C6.77686 16.0029 6.22314 15.4286 5.53719 15.4286ZM12.1488 7.71429H1.23967C0.553719 7.71429 0 8.28857 0 9C0 9.71143 0.553719 10.2857 1.23967 10.2857H12.1488C12.8347 10.2857 13.3884 9.71143 13.3884 9C13.3884 8.28857 12.8347 7.71429 12.1488 7.71429Z" fill="black"/>
</svg>
