<svg width="24" height="24" viewBox="0 0 24 24" fill="none" xmlns="http://www.w3.org/2000/svg">
<mask id="mask0_2453_7637" style="mask-type:alpha" maskUnits="userSpaceOnUse" x="0" y="0" width="24" height="24">
<rect width="24" height="24" fill="#D9D9D9"/>
</mask>
<g mask="url(#mask0_2453_7637)">
<path d="M15.5888 2.57153C15.3723 2.57153 15.1647 2.65752 15.0117 2.81058C14.8586 2.96363 14.7726 3.17122 14.7726 3.38768C14.7726 5.79448 12.6645 5.92678 10.6919 5.92678H4.97892C4.11311 5.92678 3.28275 6.27073 2.67053 6.88295C2.0583 7.49518 1.71436 8.32554 1.71436 9.19135L1.71436 10.8236C1.71614 11.3123 1.82818 11.7942 2.04212 12.2336C2.25606 12.6729 2.5664 13.0583 2.94999 13.361L5.86526 19.8673C6.07259 20.3334 6.41058 20.7294 6.83832 21.0074C7.26606 21.2853 7.7652 21.4333 8.27532 21.4335C8.6812 21.4332 9.08057 21.3315 9.43707 21.1375C9.79358 20.9435 10.0959 20.6634 10.3165 20.3227C10.5372 19.982 10.6691 19.5916 10.7003 19.1869C10.7315 18.7822 10.661 18.3762 10.4952 18.0057L8.69972 14.0882H10.6919C12.6645 14.0882 14.7726 14.2205 14.7726 16.6273C14.7726 16.8438 14.8586 17.0514 15.0117 17.2044C15.1647 17.3575 15.3723 17.4435 15.5888 17.4435C15.8052 17.4435 16.0128 17.3575 16.1659 17.2044C16.3189 17.0514 16.4049 16.8438 16.4049 16.6273V3.38768C16.4049 3.17122 16.3189 2.96363 16.1659 2.81058C16.0128 2.65752 15.8052 2.57153 15.5888 2.57153ZM9.00822 18.6741C9.06228 18.7962 9.08501 18.9298 9.07436 19.0629C9.06371 19.196 9.02001 19.3243 8.94723 19.4363C8.87444 19.5482 8.77487 19.6402 8.65755 19.7039C8.54022 19.7677 8.40884 19.8011 8.27532 19.8012C8.08059 19.8011 7.89008 19.7444 7.72694 19.638C7.56381 19.5317 7.43506 19.3803 7.35635 19.2022L5.06462 14.0882H6.9042L9.00822 18.6741ZM14.7726 13.7618C13.6066 12.8633 12.1629 12.4013 10.6919 12.4559H4.97892C4.54602 12.4559 4.13084 12.284 3.82472 11.9778C3.51861 11.6717 3.34664 11.2565 3.34664 10.8236V9.19135C3.34664 8.75844 3.51861 8.34327 3.82472 8.03715C4.13084 7.73104 4.54602 7.55907 4.97892 7.55907H10.6919C12.1624 7.61481 13.6061 7.15429 14.7726 6.25732V13.7618ZM22.1997 14.4571C22.1519 14.5531 22.0856 14.6386 22.0046 14.709C21.9236 14.7793 21.8296 14.8329 21.7279 14.8669C21.6262 14.9008 21.5188 14.9144 21.4118 14.9068C21.3048 14.8993 21.2004 14.8707 21.1045 14.8227L19.4722 14.0066C19.2785 13.9098 19.1311 13.7401 19.0625 13.5347C18.994 13.3293 19.0098 13.1051 19.1066 12.9113C19.2033 12.7176 19.3731 12.5702 19.5785 12.5017C19.7839 12.4331 20.0081 12.4489 20.2018 12.5457L21.8341 13.3618C22.0268 13.4585 22.1735 13.6276 22.242 13.832C22.3105 14.0365 22.2953 14.2597 22.1997 14.453V14.4571ZM19.1066 7.11182C19.0586 7.01591 19.03 6.91148 19.0225 6.80452C19.0149 6.69755 19.0285 6.59014 19.0624 6.48842C19.0964 6.38671 19.15 6.29268 19.2204 6.21171C19.2907 6.13075 19.3762 6.06443 19.4722 6.01656L21.1045 5.20042C21.2982 5.10366 21.5224 5.08783 21.7278 5.1564C21.9332 5.22497 22.103 5.37232 22.1997 5.56605C22.2965 5.75978 22.3123 5.984 22.2438 6.18941C22.1752 6.39481 22.0278 6.56456 21.8341 6.66131L20.2018 7.47746C20.1059 7.52541 20.0015 7.55399 19.8945 7.56157C19.7876 7.56914 19.6801 7.55557 19.5784 7.52161C19.4767 7.48765 19.3827 7.43398 19.3017 7.36367C19.2208 7.29336 19.1544 7.20778 19.1066 7.11182ZM19.0168 10.0075C19.0168 9.79104 19.1028 9.58345 19.2558 9.4304C19.4089 9.27734 19.6165 9.19135 19.8329 9.19135H21.4652C21.6817 9.19135 21.8893 9.27734 22.0423 9.4304C22.1954 9.58345 22.2814 9.79104 22.2814 10.0075C22.2814 10.224 22.1954 10.4315 22.0423 10.5846C21.8893 10.7377 21.6817 10.8236 21.4652 10.8236H19.8329C19.6165 10.8236 19.4089 10.7377 19.2558 10.5846C19.1028 10.4315 19.0168 10.224 19.0168 10.0075Z" fill="#1C1C1C"/>
</g>
</svg>
