<svg width="20" height="19" viewBox="0 0 20 19" fill="none" xmlns="http://www.w3.org/2000/svg">
<path d="M19.5763 8.34616C19.1705 7.80119 18.548 7.48788 17.8681 7.48788H17.4989V5.83214C17.4989 3.53478 15.6299 1.66573 13.3325 1.66573H9.11944C8.99112 1.66573 8.86112 1.6349 8.74696 1.57824L6.11796 0.263318C5.77298 0.0908281 5.38634 3.48193e-07 4.99969 3.48193e-07H3.33313C1.49491 -0.000832934 0 1.49408 0 3.3323V14.165C0 16.4623 1.86905 18.3314 4.16641 18.3314H14.6308C16.4857 18.3314 18.0889 17.1381 18.6322 15.3257L19.9088 10.2294C20.1038 9.57775 19.9821 8.89196 19.5763 8.34616ZM1.66656 14.165V3.3323C1.66656 2.41319 2.41402 1.66573 3.33313 1.66573H4.99969C5.12802 1.66573 5.25801 1.69656 5.37217 1.75323L8.00118 3.06815C8.34616 3.24064 8.7328 3.33146 9.11944 3.33146H13.3325C14.7108 3.33146 15.8324 4.45306 15.8324 5.83131V7.48704H7.17873C5.76215 7.48704 4.49722 8.38615 4.02142 9.75357L2.19653 15.7015C1.86489 15.2774 1.66656 14.7441 1.66656 14.165ZM18.3022 9.78773L17.0256 14.8833C16.7056 15.949 15.7432 16.6648 14.6308 16.6648H4.16641C3.99309 16.6648 3.82393 16.6473 3.66061 16.6131L5.60549 10.2727C5.83798 9.60358 6.47127 9.15444 7.17956 9.15444H17.8689C18.0706 9.15444 18.1881 9.2711 18.2397 9.34109C18.2914 9.41109 18.3697 9.55692 18.3022 9.78773Z" fill="#1C1C1C"/>
</svg>
