<svg width="24" height="24" viewBox="0 0 24 24" fill="none" xmlns="http://www.w3.org/2000/svg">
<mask id="mask0_2453_7631" style="mask-type:alpha" maskUnits="userSpaceOnUse" x="0" y="0" width="24" height="24">
<rect width="24" height="24" fill="#D9D9D9"/>
</mask>
<g mask="url(#mask0_2453_7631)">
<path d="M12.0001 1.71436C9.96575 1.71436 7.97711 2.3176 6.28564 3.44781C4.59416 4.57802 3.27581 6.18443 2.49731 8.0639C1.71881 9.94336 1.51512 12.0115 1.912 14.0067C2.30887 16.0019 3.28849 17.8347 4.72698 19.2732C6.16546 20.7116 7.9982 21.6913 9.99343 22.0881C11.9887 22.485 14.0568 22.2813 15.9362 21.5028C17.8157 20.7243 19.4221 19.406 20.5523 17.7145C21.6825 16.023 22.2858 14.0344 22.2858 12.0001C22.2828 9.27303 21.1982 6.65853 19.2699 4.73023C17.3416 2.80192 14.7271 1.7173 12.0001 1.71436ZM12.0001 20.5715C10.3048 20.5715 8.64761 20.0688 7.23804 19.1269C5.82848 18.1851 4.72986 16.8464 4.08111 15.2802C3.43236 13.714 3.26261 11.9906 3.59334 10.3279C3.92407 8.66517 4.74042 7.13789 5.93916 5.93915C7.13789 4.74042 8.66518 3.92407 10.3279 3.59334C11.9906 3.26261 13.714 3.43235 15.2802 4.0811C16.8464 4.72985 18.1851 5.82847 19.127 7.23804C20.0688 8.6476 20.5715 10.3048 20.5715 12.0001C20.569 14.2726 19.6651 16.4513 18.0582 18.0582C16.4513 19.6651 14.2726 20.569 12.0001 20.5715Z" fill="#1C1C1C"/>
<path d="M12.6149 6.05407C12.1206 5.96401 11.6126 5.98368 11.1267 6.1117C10.6409 6.23972 10.1891 6.47295 9.8034 6.7949C9.41767 7.11684 9.10742 7.51963 8.89459 7.97475C8.68176 8.42987 8.57155 8.92621 8.57178 9.42864C8.57178 9.65596 8.66208 9.87398 8.82283 10.0347C8.98357 10.1955 9.20159 10.2858 9.42892 10.2858C9.65625 10.2858 9.87427 10.1955 10.035 10.0347C10.1958 9.87398 10.2861 9.65596 10.2861 9.42864C10.2858 9.17644 10.3413 8.92731 10.4484 8.699C10.5555 8.47069 10.7117 8.26883 10.9058 8.1078C11.0999 7.94678 11.3271 7.83057 11.5713 7.76745C11.8154 7.70433 12.0705 7.69586 12.3183 7.74264C12.657 7.80837 12.9683 7.97354 13.2126 8.21706C13.4568 8.46057 13.623 8.77138 13.6898 9.10978C13.7572 9.46498 13.7107 9.83242 13.5567 10.1596C13.4028 10.4867 13.1493 10.7568 12.8326 10.9312C12.3082 11.235 11.8749 11.6739 11.5777 12.2022C11.2806 12.7304 11.1305 13.3287 11.1432 13.9346V14.5715C11.1432 14.7988 11.2335 15.0168 11.3943 15.1776C11.555 15.3383 11.773 15.4286 12.0003 15.4286C12.2277 15.4286 12.4457 15.3383 12.6064 15.1776C12.7672 15.0168 12.8575 14.7988 12.8575 14.5715V13.9346C12.8467 13.6364 12.9148 13.3405 13.0547 13.0769C13.1946 12.8133 13.4016 12.5911 13.6546 12.4329C14.2756 12.0918 14.7757 11.5667 15.0861 10.9298C15.3965 10.2929 15.502 9.57551 15.388 8.87623C15.274 8.17694 14.9462 7.53014 14.4496 7.02478C13.9531 6.51941 13.3121 6.18029 12.6149 6.05407Z" fill="#1C1C1C"/>
<path d="M12.8574 17.1433C12.8574 16.6699 12.4736 16.2861 12.0002 16.2861C11.5268 16.2861 11.1431 16.6699 11.1431 17.1433C11.1431 17.6167 11.5268 18.0004 12.0002 18.0004C12.4736 18.0004 12.8574 17.6167 12.8574 17.1433Z" fill="#1C1C1C"/>
</g>
</svg>
