<svg width="24" height="24" viewBox="0 0 24 24" fill="none" xmlns="http://www.w3.org/2000/svg">
<g clip-path="url(#clip0_6_799)">
<path d="M2.25694 11.1429C2.71111 6.08571 6.89908 2.2619 12.0002 2.25714C14.491 2.26667 16.9196 3.24286 18.7267 4.94286H15.9682C15.3419 4.94286 14.8352 5.44762 14.8352 6.07143C14.8352 6.69524 15.3419 7.2 15.9682 7.2H20.0797C21.1697 7.2 22.0589 6.31429 22.0637 5.22381V1.12857C22.0637 0.504762 21.557 0 20.9307 0C20.3044 0 19.7976 0.504762 19.7976 1.12857V2.87619C17.4455 0.871429 14.4575 -0.142857 11.3548 0.0190476C8.14686 0.185714 5.19712 1.58571 3.04577 3.9619C1.3199 5.87619 0.239447 8.33809 0.0051883 10.9C-0.0234964 11.2 0.0673385 11.4952 0.263351 11.7286C0.459363 11.9619 0.731867 12.1048 1.03306 12.1333C1.06652 12.1381 1.09999 12.1381 1.13345 12.1381C1.13823 12.1381 1.14301 12.1381 1.1478 12.1381C1.72149 12.1381 2.19479 11.7143 2.25694 11.1429Z" fill="#882EFD"/>
<path d="M22.9674 11.8666C22.9387 11.8618 22.91 11.8618 22.8814 11.8618H22.8718H22.8575C22.2838 11.8618 21.8057 12.2856 21.7483 12.8571C21.5236 15.4475 20.2997 17.7951 18.3014 19.4666C16.303 21.138 13.774 21.9332 11.1732 21.7094C8.95972 21.519 6.88008 20.5809 5.27852 19.0571H8.03225C8.65853 19.0571 9.16529 18.5523 9.16529 17.9285C9.16529 17.3047 8.65853 16.7999 8.03225 16.7999H3.92077C2.83075 16.7999 1.94153 17.6856 1.94153 18.7761V22.8713C1.94153 23.4951 2.44829 23.9999 3.07457 23.9999C3.70086 23.9999 4.20762 23.4951 4.20762 22.8713V21.1237C6.39244 22.9904 9.13183 23.9999 12.0051 23.9999C12.2202 23.9999 12.4306 23.9951 12.6457 23.9809C15.8536 23.8142 18.8034 22.4142 20.9547 20.0332C22.6806 18.1237 23.761 15.6571 23.9953 13.0951C24.0527 12.4761 23.5937 11.9237 22.9674 11.8666Z" fill="#882EFD"/>
</g>
<defs>
<clipPath id="clip0_6_799">
<rect width="24" height="24" fill="white"/>
</clipPath>
</defs>
</svg>
