<svg width="24" height="24" viewBox="0 0 24 24" fill="none" xmlns="http://www.w3.org/2000/svg">
<mask id="mask0_2453_7585" style="mask-type:alpha" maskUnits="userSpaceOnUse" x="0" y="0" width="24" height="24">
<rect width="24" height="24" fill="#D9D9D9"/>
</mask>
<g mask="url(#mask0_2453_7585)">
<path d="M11.9609 3.42888C13.0979 3.43261 14.2229 3.6618 15.2707 4.10318C16.3186 4.54456 17.2685 5.18938 18.0655 6.00031H15.3895C15.1621 6.00031 14.9441 6.09061 14.7834 6.25136C14.6226 6.4121 14.5323 6.63012 14.5323 6.85745C14.5323 7.08478 14.6226 7.3028 14.7834 7.46354C14.9441 7.62429 15.1621 7.71459 15.3895 7.71459H18.9406C19.3627 7.71437 19.7674 7.54659 20.0659 7.24814C20.3643 6.94968 20.5321 6.54496 20.5323 6.12288V2.57173C20.5323 2.34441 20.442 2.12639 20.2813 1.96564C20.1205 1.8049 19.9025 1.71459 19.6752 1.71459C19.4479 1.71459 19.2298 1.8049 19.0691 1.96564C18.9083 2.12639 18.818 2.34441 18.818 2.57173V4.35288C17.4013 3.07698 15.6574 2.22066 13.7816 1.87981C11.9057 1.53895 9.97201 1.72703 8.197 2.42298C6.422 3.11892 4.87577 4.29525 3.73148 5.82024C2.58719 7.34523 1.89002 9.15866 1.71804 11.0574C1.70697 11.1768 1.72089 11.2972 1.7589 11.4109C1.79691 11.5246 1.85819 11.6291 1.93882 11.7178C2.01946 11.8065 2.11769 11.8774 2.22725 11.9261C2.33682 11.9747 2.45531 12 2.57519 12.0003C2.78483 12.003 2.98793 11.9273 3.14472 11.7881C3.30152 11.6489 3.40071 11.4562 3.4229 11.2477C3.61371 9.11409 4.59545 7.12891 6.17526 5.68217C7.75506 4.23543 9.81874 3.4317 11.9609 3.42888Z" fill="black"/>
<path d="M21.3474 12.0003C21.1378 11.9976 20.9347 12.0733 20.7779 12.2125C20.6211 12.3517 20.5219 12.5444 20.4997 12.7529C20.358 14.3842 19.7513 15.9407 18.7517 17.2376C17.752 18.5346 16.4013 19.5175 14.8598 20.0699C13.3183 20.6223 11.6507 20.7209 10.0548 20.3541C8.45898 19.9873 7.00183 19.1704 5.85626 18.0003H8.53226C8.75959 18.0003 8.97761 17.91 9.13835 17.7493C9.2991 17.5885 9.3894 17.3705 9.3894 17.1432C9.3894 16.9158 9.2991 16.6978 9.13835 16.5371C8.97761 16.3763 8.75959 16.286 8.53226 16.286H4.98112C4.77206 16.2859 4.56503 16.327 4.37186 16.407C4.1787 16.4869 4.00318 16.6042 3.85536 16.752C3.70753 16.8998 3.59029 17.0753 3.51034 17.2685C3.43039 17.4617 3.38929 17.6687 3.3894 17.8777V21.4289C3.3894 21.6562 3.47971 21.8742 3.64046 22.035C3.8012 22.1957 4.01922 22.286 4.24655 22.286C4.47388 22.286 4.69189 22.1957 4.85264 22.035C5.01338 21.8742 5.10369 21.6562 5.10369 21.4289V19.6477C6.5204 20.9236 8.26433 21.78 10.1402 22.1208C12.016 22.4617 13.9497 22.2736 15.7247 21.5776C17.4997 20.8817 19.046 19.7054 20.1903 18.1804C21.3345 16.6554 22.0317 14.842 22.2037 12.9432C22.2148 12.8238 22.2008 12.7034 22.1628 12.5898C22.1248 12.4761 22.0635 12.3715 21.9829 12.2828C21.9023 12.1941 21.804 12.1232 21.6945 12.0746C21.5849 12.0259 21.4673 12.0006 21.3474 12.0003Z" fill="black"/>
</g>
</svg>
