<svg width="24" height="24" viewBox="0 0 24 24" fill="none" xmlns="http://www.w3.org/2000/svg">
<mask id="mask0_2453_7640" style="mask-type:alpha" maskUnits="userSpaceOnUse" x="0" y="0" width="24" height="24">
<rect width="24" height="24" fill="#D9D9D9"/>
</mask>
<g mask="url(#mask0_2453_7640)">
<path d="M22.0526 20.8779L16.477 15.3023C17.8283 13.6496 18.4927 11.5407 18.3328 9.41183C18.1728 7.28298 17.2008 5.29705 15.6176 3.8648C14.0345 2.43256 11.9615 1.6636 9.82728 1.71696C7.69309 1.77032 5.66106 2.64193 4.15149 4.15149C2.64193 5.66106 1.77032 7.69309 1.71696 9.82728C1.6636 11.9615 2.43256 14.0345 3.8648 15.6176C5.29705 17.2008 7.28298 18.1728 9.41183 18.3328C11.5407 18.4927 13.6496 17.8283 15.3023 16.477L20.8779 22.0526C21.0346 22.2039 21.2444 22.2876 21.4622 22.2858C21.6801 22.2839 21.8884 22.1965 22.0425 22.0425C22.1965 21.8884 22.2839 21.6801 22.2858 21.4622C22.2876 21.2444 22.2039 21.0346 22.0526 20.8779ZM10.0486 16.6946C8.73409 16.6946 7.44913 16.3049 6.35619 15.5746C5.26324 14.8443 4.4114 13.8063 3.90837 12.5919C3.40535 11.3775 3.27373 10.0412 3.53017 8.75197C3.78661 7.46276 4.41959 6.27854 5.34906 5.34906C6.27854 4.41959 7.46276 3.78661 8.75197 3.53017C10.0412 3.27373 11.3775 3.40535 12.5919 3.90837C13.8063 4.4114 14.8443 5.26324 15.5746 6.35619C16.3049 7.44913 16.6946 8.73409 16.6946 10.0486C16.6927 11.8106 15.9918 13.4999 14.7459 14.7459C13.4999 15.9918 11.8106 16.6927 10.0486 16.6946Z" fill="#1C1C1C"/>
</g>
</svg>
