<svg width="26" height="14" viewBox="0 0 26 14" fill="none" xmlns="http://www.w3.org/2000/svg">
<path d="M21.9992 1H15.9995C15.4465 1 14.9995 1.44698 14.9995 1.99995C14.9995 2.55292 15.4465 2.9999 15.9995 2.9999H21.5852L15.0235 9.56155C14.4595 10.1255 13.5416 10.1255 12.9766 9.56155L10.4378 7.02269C9.09383 5.67876 6.90694 5.67876 5.56301 7.02269L1.29323 11.2925C0.902255 11.6834 0.902255 12.3154 1.29323 12.7064C1.48822 12.9014 1.74421 12.9994 2.0002 12.9994C2.25618 12.9994 2.51217 12.9014 2.70716 12.7064L6.97694 8.43661C7.52391 7.88964 8.47686 7.88964 9.02383 8.43661L11.5627 10.9755C12.9066 12.3194 15.0935 12.3194 16.4374 10.9755L23.0001 4.41382V9.99953C23.0001 10.5525 23.4471 10.9995 24.0001 10.9995C24.553 10.9995 25 10.5525 25 9.99953V3.99984C25 2.34593 23.6531 1 21.9992 1Z" fill="#882EFD" stroke="#882EFD" stroke-width="0.5"/>
</svg>
