<svg width="18" height="18" viewBox="0 0 18 18" fill="none" xmlns="http://www.w3.org/2000/svg">
<g clip-path="url(#clip0_6_957)">
<path d="M17.5605 12.0675C17.5605 12.0675 11.01 9.09 10.9867 9.0825C10.4408 8.8965 9.84825 9.03375 9.44025 9.44175C9.03225 9.84975 8.895 10.4422 9.10875 11.055L12.0668 17.5612C12.186 17.8245 12.4463 17.9955 12.7358 18.0007H12.75C13.0335 18.0007 13.2938 17.8402 13.4213 17.586L14.8095 14.8095L17.586 13.4212C17.8447 13.2915 18.006 13.026 18.0007 12.7365C17.9955 12.4477 17.8245 12.1875 17.5613 12.0675H17.5605ZM13.9147 13.5795C13.77 13.6522 13.6515 13.77 13.5795 13.9147L12.7815 15.5107L10.4985 10.5037L15.5093 12.7822L13.9155 13.5787L13.9147 13.5795ZM9.684 16.47C9.555 16.4812 9.42525 16.4895 9.294 16.4947C8.793 15.999 7.4865 14.6062 6.576 12.7507H7.125C7.539 12.7507 7.875 12.4155 7.875 12.0007C7.875 11.586 7.539 11.2507 7.125 11.2507H5.9775C5.75925 10.5367 5.625 9.78075 5.625 9.00075C5.625 8.22075 5.76 7.4655 5.979 6.75075H12.0217C12.1102 7.041 12.1852 7.338 12.243 7.641C12.321 8.04825 12.7148 8.31675 13.1198 8.23725C13.5262 8.16 13.7933 7.767 13.716 7.3605C13.677 7.15425 13.6305 6.951 13.5787 6.75075H16.1235C16.1332 6.75075 16.1437 6.75075 16.1535 6.75075C16.3778 7.46175 16.4985 8.21775 16.4985 9.0015C16.4985 9.23175 16.488 9.459 16.4678 9.684C16.431 10.0965 16.7348 10.461 17.1473 10.4985C17.5613 10.539 17.925 10.2315 17.9618 9.819C17.9858 9.54975 17.9985 9.27675 17.9985 9.0015C18 4.03725 13.9628 0 9 0C4.03725 0 0 4.03725 0 9C0 13.9627 4.03725 18 8.99925 18C9.2745 18 9.54675 17.9872 9.81525 17.9632C10.2277 17.9265 10.533 17.5627 10.4963 17.1495C10.4595 16.7377 10.0965 16.4332 9.68325 16.4692L9.684 16.47ZM4.419 11.2507H1.875C1.86525 11.2507 1.8555 11.2507 1.845 11.2507C1.62075 10.5397 1.5 9.78375 1.5 9C1.5 8.21625 1.62075 7.46025 1.845 6.74925C1.85475 6.74925 1.8645 6.74925 1.875 6.74925H4.419C4.23525 7.4655 4.125 8.2185 4.125 8.99925C4.125 9.78 4.2345 10.533 4.419 11.2492V11.2507ZM6.57975 5.25075C7.3455 3.693 8.391 2.45775 9.0015 1.80975C9.61275 2.457 10.6582 3.69 11.424 5.25075H6.57975ZM15.4935 5.25075H13.0725C12.4792 3.83625 11.6565 2.63475 10.9485 1.758C12.8827 2.27925 14.5103 3.55575 15.4935 5.25075ZM7.05 1.758C6.342 2.63475 5.5185 3.83625 4.926 5.25H2.5065C3.489 3.555 5.11575 2.2785 7.05 1.758ZM2.5065 12.75H4.926C5.5185 14.1645 6.342 15.3652 7.05 16.242C5.1165 15.7207 3.48975 14.4442 2.5065 12.75Z" fill="#882EFD"/>
</g>
<defs>
<clipPath id="clip0_6_957">
<rect width="18" height="18" fill="white"/>
</clipPath>
</defs>
</svg>
