<svg width="20" height="20" viewBox="0 0 20 20" fill="none" xmlns="http://www.w3.org/2000/svg">
<path d="M6.52667 13.4738C6.335 13.2821 6.155 13.0721 5.9925 12.8504C5.72167 12.4787 5.80333 11.9571 6.17583 11.6862C6.5475 11.4154 7.06833 11.4971 7.34 11.8687C7.4475 12.0171 7.56833 12.1596 7.70417 12.2946C8.37333 12.9637 9.2625 13.3321 10.2083 13.3321C11.1542 13.3321 12.0442 12.9637 12.7125 12.2946L17.2958 7.71125C18.6767 6.33042 18.6767 4.08292 17.2958 2.70208C15.915 1.32125 13.6675 1.32125 12.2867 2.70208L11.405 3.58375C11.0792 3.90958 10.5525 3.90958 10.2267 3.58375C9.90083 3.25792 9.90083 2.73125 10.2267 2.40542L11.1083 1.52375C13.1392 -0.507917 16.4433 -0.507917 18.4742 1.52375C20.505 3.55458 20.505 6.85875 18.4742 8.88958L13.8908 13.4729C12.9075 14.4571 11.5992 14.9988 10.2083 14.9988C8.8175 14.9988 7.50917 14.4571 6.52667 13.4738ZM5.20833 19.9988C6.6 19.9988 7.9075 19.4571 8.89083 18.4729L9.7725 17.5912C10.0983 17.2663 10.0983 16.7388 9.7725 16.4129C9.4475 16.0871 8.92 16.0879 8.59417 16.4129L7.71167 17.2946C7.0425 17.9637 6.15333 18.3321 5.2075 18.3321C4.26167 18.3321 3.3725 17.9637 2.70333 17.2946C2.03417 16.6254 1.66583 15.7362 1.66583 14.7904C1.66583 13.8446 2.03417 12.9546 2.70333 12.2862L7.28667 7.70292C7.95583 7.03375 8.845 6.66542 9.79083 6.66542C10.7367 6.66542 11.6267 7.03375 12.295 7.70292C12.4283 7.83708 12.55 7.97958 12.6583 8.12792C12.9283 8.50042 13.4492 8.58375 13.8225 8.31208C14.195 8.04125 14.2775 7.52042 14.0067 7.14792C13.8483 6.92958 13.6692 6.72042 13.4742 6.52542C12.49 5.54042 11.1817 4.99875 9.79083 4.99875C8.4 4.99875 7.09167 5.54042 6.10833 6.52458L1.52583 11.1079C0.541667 12.0912 0 13.3996 0 14.7904C0 16.1812 0.541667 17.4896 1.52583 18.4729C2.50917 19.4571 3.81667 19.9988 5.20833 19.9988Z" fill="black"/>
</svg>
