<svg width="20" height="20" viewBox="0 0 20 20" fill="none" xmlns="http://www.w3.org/2000/svg">
<path d="M19.5109 13.4078C19.5109 13.4078 12.2328 10.0996 12.207 10.0912C11.6003 9.88459 10.942 10.0371 10.4887 10.4904C10.0354 10.9437 9.88292 11.602 10.1204 12.2828L13.4069 19.5117C13.5394 19.8042 13.8286 19.9942 14.1502 20H14.1661C14.4811 20 14.7702 19.8217 14.9119 19.5392L16.4543 16.4543L19.5392 14.9119C19.8267 14.7677 20.0058 14.4727 20 14.1511C19.9942 13.8303 19.8042 13.5411 19.5117 13.4078H19.5109ZM15.4602 15.0877C15.2994 15.1685 15.1677 15.2994 15.0877 15.4602L14.2011 17.2334L11.6645 11.6703L17.2318 14.2019L15.461 15.0869L15.4602 15.0877ZM10.7596 18.2992C10.6162 18.3117 10.4721 18.3209 10.3262 18.3267C9.76959 17.7759 8.31799 16.2285 7.30636 14.1669H7.91634C8.37632 14.1669 8.74963 13.7944 8.74963 13.3336C8.74963 12.8728 8.37632 12.5003 7.91634 12.5003H6.64139C6.3989 11.707 6.24974 10.867 6.24974 10.0004C6.24974 9.13379 6.39973 8.29465 6.64306 7.50052H13.3569C13.4553 7.82301 13.5386 8.15299 13.6028 8.48965C13.6894 8.94213 14.1269 9.24045 14.5769 9.15212C15.0285 9.06629 15.3252 8.62964 15.2394 8.17799C15.196 7.94884 15.1444 7.72301 15.0869 7.50052H17.9143C17.9251 7.50052 17.9368 7.50052 17.9476 7.50052C18.1967 8.29049 18.3309 9.13045 18.3309 10.0013C18.3309 10.2571 18.3192 10.5096 18.2967 10.7596C18.2559 11.2179 18.5934 11.6228 19.0517 11.6645C19.5117 11.7095 19.9158 11.3679 19.9567 10.9095C19.9833 10.6104 19.9975 10.3071 19.9975 10.0013C19.9992 4.48565 15.5135 0 9.99958 0C4.48565 0 0 4.48565 0 9.99958C0 15.5135 4.48565 19.9992 9.99875 19.9992C10.3046 19.9992 10.6071 19.985 10.9054 19.9583C11.3637 19.9175 11.7028 19.5134 11.662 19.0542C11.6212 18.5967 11.2179 18.2584 10.7587 18.2984L10.7596 18.2992ZM4.9098 12.5003H2.08325C2.07241 12.5003 2.06158 12.5003 2.04991 12.5003C1.80076 11.7103 1.6666 10.8704 1.6666 9.99958C1.6666 9.12879 1.80076 8.28882 2.04991 7.49885C2.06075 7.49885 2.07158 7.49885 2.08325 7.49885H4.9098C4.70564 8.29465 4.58314 9.13129 4.58314 9.99875C4.58314 10.8662 4.7048 11.7028 4.9098 12.4986V12.5003ZM7.31053 5.83392C8.16133 4.10316 9.32294 2.73072 10.0012 2.01075C10.6804 2.72989 11.842 4.09983 12.6928 5.83392H7.31053ZM17.2143 5.83392H14.5244C13.8653 4.26232 12.9511 2.92738 12.1645 1.95325C14.3136 2.53239 16.1218 3.95067 17.2143 5.83392ZM7.83301 1.95325C7.04637 2.92738 6.13141 4.26232 5.4731 5.83309H2.78488C3.8765 3.94984 5.68393 2.53156 7.83301 1.95325ZM2.78488 14.1661H5.4731C6.13141 15.7377 7.04637 17.0718 7.83301 18.0459C5.68476 17.4668 3.87734 16.0485 2.78488 14.1661Z" fill="#1C1C1C"/>
</svg>
