<svg width="16" height="20" viewBox="0 0 16 20" fill="none" xmlns="http://www.w3.org/2000/svg">
<path d="M4.88875 7.91662C4.88875 8.37579 4.99542 8.81079 5.18542 9.19746C4.77709 9.72079 4.52292 10.37 4.48875 11.0775C3.70458 10.2541 3.22208 9.14079 3.22208 7.91745C3.22208 5.07494 5.82376 2.82827 8.77127 3.43327C10.5063 3.78994 11.9121 5.18744 12.2821 6.91995C12.3938 7.44329 12.4146 7.95579 12.3579 8.44579C12.3096 8.86079 11.9454 9.16746 11.5271 9.16746H11.4896C10.9963 9.16746 10.6496 8.72829 10.7038 8.23829C10.7404 7.90912 10.7213 7.56329 10.6371 7.21078C10.3888 6.16661 9.5371 5.32078 8.49127 5.07994C6.58626 4.64244 4.88792 6.08578 4.88792 7.91745L4.88875 7.91662ZM1.64707 6.83745C1.87541 5.50994 2.52458 4.29994 3.53125 3.35577C4.80542 2.1616 6.47376 1.5716 8.22293 1.67993C11.5171 1.89327 14.093 4.77911 14.0546 8.23412C14.0388 9.68079 12.8271 10.8325 11.3813 10.8325H9.37627C9.17294 10.1416 8.54127 9.63329 7.7846 9.63329C6.86376 9.63329 6.11792 10.3791 6.11792 11.3C6.11792 12.2208 6.86376 12.9666 7.7846 12.9666C8.23293 12.9666 8.63877 12.7875 8.93793 12.4991H11.3813C13.7305 12.4991 15.688 10.6283 15.7213 8.27996C15.783 3.92911 12.5146 0.287426 8.33043 0.0174248C6.11042 -0.126742 4.00458 0.627427 2.39208 2.14077C1.14291 3.3116 0.312069 4.86161 0.0129012 6.52912C-0.0779325 7.03578 0.322902 7.50079 0.837071 7.50079C1.23041 7.50079 1.58124 7.22662 1.64707 6.83828V6.83745ZM7.80543 14.1666C4.72625 14.1666 2.06208 16.0767 1.17624 18.9183C1.03874 19.3575 1.28457 19.825 1.72374 19.9625C2.16208 20.095 2.62958 19.8533 2.76708 19.415C3.42458 17.3067 5.49542 15.8333 7.8046 15.8333C10.1138 15.8333 12.1854 17.3067 12.8421 19.415C12.9538 19.7717 13.2821 20 13.638 20C13.7205 20 13.803 19.9875 13.8863 19.9625C14.3255 19.825 14.5705 19.3575 14.4338 18.9183C13.548 16.0767 10.8838 14.1666 7.8046 14.1666H7.80543Z" fill="black"/>
</svg>
