<svg width="17" height="20" viewBox="0 0 17 20" fill="none" xmlns="http://www.w3.org/2000/svg">
<path d="M14.2789 19.9971C13.9706 19.9963 13.6656 19.9343 13.3814 19.8149C13.0973 19.6955 12.8396 19.521 12.6233 19.3014L8.33223 15.0403L4.04118 19.3047C3.71209 19.6386 3.29003 19.8656 2.83004 19.9561C2.37005 20.0466 1.89345 19.9964 1.46239 19.8121C1.02705 19.637 0.654629 19.3347 0.393761 18.9447C0.132892 18.5546 -0.00429875 18.095 0.000102682 17.6258V4.16606C0.000102682 3.06115 0.439026 2.0015 1.22031 1.22021C2.0016 0.438923 3.06126 0 4.16617 0H12.4983C13.0454 0 13.5871 0.107758 14.0926 0.317123C14.598 0.526487 15.0573 0.833357 15.4441 1.22021C15.831 1.60707 16.1379 2.06633 16.3472 2.57178C16.5566 3.07723 16.6644 3.61897 16.6644 4.16606V17.6258C16.669 18.0946 16.5323 18.554 16.2721 18.944C16.0118 19.334 15.6401 19.6365 15.2054 19.8121C14.912 19.9349 14.5969 19.9977 14.2789 19.9971ZM4.16617 1.66643C3.50322 1.66643 2.86743 1.92978 2.39865 2.39855C1.92988 2.86733 1.66653 3.50312 1.66653 4.16606V17.6258C1.66623 17.7646 1.70708 17.9004 1.78393 18.0161C1.86078 18.1317 1.97017 18.222 2.09829 18.2755C2.22641 18.329 2.36752 18.3433 2.50377 18.3166C2.64003 18.29 2.76534 18.2235 2.86385 18.1257L7.74898 13.2756C7.90509 13.1204 8.11627 13.0333 8.3364 13.0333C8.55652 13.0333 8.7677 13.1204 8.92381 13.2756L13.8023 18.124C13.9008 18.2219 14.0261 18.2883 14.1624 18.315C14.2986 18.3416 14.4397 18.3273 14.5678 18.2738C14.696 18.2203 14.8053 18.13 14.8822 18.0144C14.959 17.8988 14.9999 17.763 14.9996 17.6241V4.16606C14.9996 3.50312 14.7362 2.86733 14.2675 2.39855C13.7987 1.92978 13.1629 1.66643 12.5 1.66643H4.16617Z" fill="black"/>
</svg>
