<svg width="20" height="20" viewBox="0 0 20 20" fill="none" xmlns="http://www.w3.org/2000/svg">
<mask id="mask0_2453_3408" style="mask-type:alpha" maskUnits="userSpaceOnUse" x="0" y="0" width="20" height="20">
<rect width="20" height="20" fill="#D9D9D9"/>
</mask>
<g mask="url(#mask0_2453_3408)">
<path d="M6.60609 3.33373C4.36226 3.36411 2.53074 5.1956 2.50036 7.43939C2.46998 9.76565 4.3449 11.6666 6.66685 11.6666C8.96709 11.6622 10.829 9.80037 10.8333 7.50015C10.8333 5.17824 8.93671 3.29901 6.60609 3.33373ZM6.66685 9.81339C5.38652 9.81339 4.35358 8.77612 4.35358 7.50015C4.35358 6.21985 5.39086 5.18692 6.66685 5.18692C7.94283 5.18692 8.98012 6.22419 8.98012 7.50015C8.98012 8.77612 7.94717 9.81339 6.66685 9.81339Z" fill="#1C1C1C"/>
<path d="M13.3313 16.668C13.3324 16.668 13.3333 16.667 13.3333 16.6659C13.3281 14.3661 11.3799 12.5039 8.97434 12.5H4.35491C1.95276 12.5039 0.00408528 14.3672 0 16.668V19.168C0 19.6289 0.392187 20 0.870165 20C1.35223 20 1.74033 19.625 1.74033 19.168V16.668C1.74033 15.2891 2.9128 14.168 4.35491 14.168H8.97434C10.4164 14.168 11.5889 15.2891 11.5889 16.668V19.168C11.5889 19.6289 11.9811 20 12.4591 20C12.9411 20 13.3292 19.625 13.3292 19.168V16.67C13.3292 16.6689 13.3302 16.668 13.3313 16.668Z" fill="#1C1C1C"/>
<path d="M14.5288 0.000426139C12.5093 0.0277683 10.861 1.67611 10.8336 3.69553C10.8063 5.78916 12.4937 7.5 14.5835 7.5C16.6537 7.49609 18.3294 5.82041 18.3333 3.75021C18.3294 1.66049 16.6225 -0.0308221 14.5288 0.000426139ZM14.5796 5.83213C13.4273 5.83213 12.4976 4.89858 12.4976 3.75021C12.4976 2.59793 13.4312 1.6683 14.5796 1.6683C15.728 1.6683 16.6615 2.60184 16.6615 3.75021C16.6654 4.89858 15.7319 5.83213 14.5796 5.83213Z" fill="#1C1C1C"/>
<path d="M20 13.3369C19.9959 11.0349 18.0183 9.17066 15.5763 9.16675H12.5498C12.0606 9.16675 11.6667 9.54194 11.6667 9.99921C11.6667 10.4604 12.0647 10.8317 12.5498 10.8317H15.5763C17.0398 10.8317 18.2297 11.9534 18.2297 13.333V15.8343C18.2297 16.2955 18.6277 16.6667 19.1128 16.6667C19.602 16.6667 19.9959 16.2916 19.9959 15.8343V13.3369H20Z" fill="#1C1C1C"/>
</g>
</svg>
