<svg width="16" height="16" viewBox="0 0 16 16" fill="none" xmlns="http://www.w3.org/2000/svg">
<circle cx="8" cy="8" r="8" fill="#00B656"/>
<path d="M10.7988 5.19952C10.5484 4.95381 10.2114 4.81662 9.86066 4.81768L6.81129 4.81297C6.63517 4.81349 6.46641 4.88369 6.34187 5.00823C6.21733 5.13277 6.14713 5.30153 6.14661 5.47765C6.14625 5.56566 6.16332 5.65286 6.19683 5.73424C6.23034 5.81562 6.27964 5.88956 6.34187 5.95179C6.4041 6.01402 6.47803 6.06331 6.55941 6.09682C6.64079 6.13034 6.728 6.1474 6.816 6.14704L8.91313 6.14233L5.19909 9.85638C5.07406 9.9814 5.00382 10.151 5.00382 10.3278C5.00382 10.5046 5.07406 10.6742 5.19909 10.7992C5.32411 10.9242 5.49368 10.9944 5.67049 10.9944C5.8473 10.9944 6.01687 10.9242 6.1419 10.7992L9.85594 7.08514L9.85594 9.18698C9.85532 9.36389 9.92499 9.5338 10.0496 9.65934C10.1743 9.78487 10.3437 9.85575 10.5206 9.85638C10.6975 9.857 10.8674 9.78732 10.993 9.66267C11.1185 9.53802 11.1894 9.3686 11.19 9.19169L11.1853 6.14233C11.1864 5.78928 11.0473 5.45022 10.7988 5.19952Z" fill="white"/>
</svg>
