<svg width="20" height="20" viewBox="0 0 20 20" fill="none" xmlns="http://www.w3.org/2000/svg">
<path d="M10 0.6C11.2692 0.6 12.5 0.848333 13.6583 1.33833C15.8842 2.28 17.72 4.11583 18.6608 6.34083C19.1517 7.5 19.4 8.73083 19.4 10C19.4 11.2692 19.1517 12.5 18.6617 13.6583C17.7317 15.8575 15.87 17.7258 13.6592 18.6608C12.5 19.1517 11.2692 19.4 10 19.4C8.73083 19.4 7.5 19.1517 6.34167 18.6617C4.14333 17.7317 2.27417 15.8692 1.33917 13.6592C0.848333 12.5 0.6 11.2692 0.6 10C0.6 8.73083 0.848333 7.5 1.33833 6.34167C2.28 4.11583 4.11667 2.27917 6.34167 1.33833C7.5 0.848333 8.73083 0.6 10 0.6ZM10 0C4.4775 0 0 4.4775 0 10C0 15.5225 4.4775 20 10 20C15.5225 20 20 15.5225 20 10C20 4.4775 15.5225 0 10 0Z" fill="#1C1C1C"/>
<path d="M1.66675 9.99984C1.66675 13.2982 3.58341 16.149 6.36342 17.4998L2.38841 6.60817C1.92591 7.64484 1.66675 8.7915 1.66675 9.99984ZM15.6259 9.579C15.6259 8.549 15.2559 7.83567 14.9392 7.28067C14.5167 6.594 14.1209 6.01317 14.1209 5.3265C14.1209 4.56067 14.7017 3.84734 15.5201 3.84734C15.5567 3.84734 15.5917 3.8515 15.6276 3.854C14.1451 2.49567 12.1692 1.6665 10.0001 1.6665C7.08842 1.6665 4.52758 3.16067 3.03758 5.42234C3.23341 5.429 3.41758 5.43234 3.57341 5.43234C4.44508 5.43234 5.79425 5.3265 5.79425 5.3265C6.24341 5.29984 6.29592 5.95984 5.84758 6.01317C5.84758 6.01317 5.39592 6.06567 4.89425 6.09234L7.92841 15.119L9.75258 9.64984L8.45425 6.09234C8.00592 6.0665 7.58008 6.01317 7.58008 6.01317C7.13091 5.9865 7.18425 5.30067 7.63341 5.3265C7.63341 5.3265 9.00925 5.43234 9.82841 5.43234C10.7001 5.43234 12.0501 5.3265 12.0501 5.3265C12.4992 5.29984 12.5517 5.95984 12.1034 6.01317C12.1034 6.01317 11.6517 6.06567 11.1501 6.09234L14.1617 15.0498L15.0217 12.3257C15.4017 11.1357 15.6259 10.2923 15.6259 9.579ZM10.1467 10.7282L7.64592 17.9932C8.39258 18.2132 9.18175 18.3332 10.0001 18.3332C10.9701 18.3332 11.9017 18.1657 12.7676 17.8607C12.7451 17.8248 12.7251 17.7873 12.7076 17.7457L10.1467 10.7282ZM17.3126 6.0015C17.3484 6.2665 17.3684 6.5515 17.3684 6.85817C17.3684 7.70317 17.2101 8.654 16.7342 9.84317L14.1892 17.2023C16.6676 15.7582 18.3334 13.074 18.3334 9.99984C18.3334 8.55067 17.9634 7.189 17.3126 6.0015Z" fill="#1C1C1C"/>
</svg>
