<svg width="102" height="40" viewBox="0 0 102 40" fill="none" xmlns="http://www.w3.org/2000/svg">
<path d="M72.742 29.4624H73.2797C74.1757 29.9283 75.251 30.3763 76.5055 30.8065C77.7599 31.2366 79.1219 31.595 80.5915 31.8817C82.0969 32.1326 83.6022 32.2581 85.1076 32.2581C86.6847 32.2581 87.9929 32.1505 89.0323 31.9355C90.1076 31.7204 90.9141 31.3799 91.4517 30.914C92.0252 30.4122 92.3119 29.7491 92.3119 28.9247C92.3119 27.8853 91.9535 27.1147 91.2366 26.6129C90.5556 26.1111 89.3191 25.7168 87.527 25.4301L83.9786 24.8925C81.3262 24.4982 79.0682 23.8172 77.2044 22.8495C75.3764 21.8817 73.9965 20.6093 73.0646 19.0323C72.1327 17.4194 71.6667 15.4839 71.6667 13.2258C71.6667 10.466 72.3119 8.10036 73.6022 6.12903C74.9284 4.15771 76.9356 2.65233 79.6237 1.6129C82.3119 0.537635 85.7528 0 89.9463 0C91.8101 0 93.6022 0.16129 95.3227 0.483871C97.0431 0.77061 98.4768 1.16488 99.6237 1.66667V9.78495H99.0323C97.9571 9.28316 96.5771 8.81721 94.8926 8.3871C93.208 7.95699 91.3262 7.74194 89.2474 7.74194C87.4553 7.74194 85.932 7.92115 84.6775 8.27957C83.4589 8.63799 82.527 9.19355 81.8818 9.94624C81.2366 10.6631 80.9141 11.5771 80.9141 12.6882C80.9141 14.1219 81.38 15.1434 82.3119 15.7527C83.2438 16.362 84.7492 16.8459 86.828 17.2043L90.2151 17.7419C92.3298 18.0645 94.2474 18.638 95.9678 19.4624C97.7241 20.2867 99.104 21.4337 100.108 22.9032C101.147 24.3728 101.667 26.3082 101.667 28.7097C101.667 30.7527 101.237 32.509 100.376 33.9785C99.5162 35.4122 98.3155 36.5771 96.7743 37.4731C95.2689 38.3333 93.5126 38.9606 91.5055 39.3548C89.5341 39.7849 87.4015 40 85.1076 40C83.4947 40 81.8997 39.8925 80.3227 39.6774C78.7814 39.4982 77.3478 39.2473 76.0216 38.9247C74.6954 38.6021 73.6022 38.2617 72.742 37.9032V29.4624Z" fill="#882EFD"/>
<path d="M37.5195 0.645508H69.5625V8.92508H58.2722V39.3552H48.7561V8.92508H37.5195V0.645508Z" fill="#882EFD"/>
<path d="M0 39.3554L4.30108 13.979C4.76702 11.1833 5.51971 8.88941 6.55914 7.0973C7.59857 5.30518 8.88889 3.90733 10.4301 2.90375C12.0072 1.90016 13.853 1.20124 15.9677 0.806976C18.0824 0.412709 20.448 0.215576 23.0645 0.215576C24.5699 0.215576 26.2007 0.305182 27.957 0.484393C29.7133 0.663604 31.3082 0.9145 32.7419 1.23708L32.8495 1.88224C32.7061 2.52741 32.5986 3.38762 32.5269 4.46289C32.491 5.53816 32.4552 6.63135 32.4194 7.74246C32.4194 8.85357 32.4194 9.76755 32.4194 10.4844V39.3554H22.9032V11.4521C22.9032 10.4127 22.9391 9.46289 23.0107 8.60267C23.1183 7.70662 23.2437 6.90016 23.3871 6.18332L24.6237 8.49515C24.2294 8.38762 23.6918 8.31594 23.0107 8.28009C22.3656 8.20841 21.7563 8.17256 21.1828 8.17256C19.4982 8.17256 18.1541 8.40554 17.1505 8.87149C16.147 9.3016 15.3763 9.96468 14.8387 10.8607C14.3369 11.7568 13.9606 12.9037 13.7097 14.3016L9.56989 39.3554H0ZM6.88172 29.4629V21.8285H27.3118V29.4629H6.88172Z" fill="#882EFD"/>
</svg>
