<svg width="61" height="24" viewBox="0 0 61 24" fill="none" xmlns="http://www.w3.org/2000/svg">
<path d="M43.6452 17.6774H43.9677C44.5054 17.957 45.1505 18.2258 45.9032 18.4839C46.6559 18.7419 47.4731 18.957 48.3548 19.129C49.2581 19.2796 50.1613 19.3548 51.0645 19.3548C52.0108 19.3548 52.7957 19.2903 53.4194 19.1613C54.0645 19.0323 54.5484 18.828 54.871 18.5484C55.2151 18.2473 55.3871 17.8495 55.3871 17.3548C55.3871 16.7312 55.172 16.2688 54.7419 15.9677C54.3333 15.6667 53.5914 15.4301 52.5161 15.2581L50.3871 14.9355C48.7957 14.6989 47.4409 14.2903 46.3226 13.7097C45.2258 13.129 44.3979 12.3656 43.8387 11.4194C43.2796 10.4516 43 9.29032 43 7.93548C43 6.27957 43.3871 4.86022 44.1613 3.67742C44.957 2.49462 46.1613 1.5914 47.7742 0.967743C49.3871 0.322581 51.4516 0 53.9677 0C55.086 0 56.1613 0.0967742 57.1935 0.290323C58.2258 0.462366 59.086 0.698925 59.7742 1V5.87097H59.4194C58.7742 5.56989 57.9462 5.29032 56.9355 5.03226C55.9247 4.77419 54.7957 4.64516 53.5484 4.64516C52.4731 4.64516 51.5591 4.75269 50.8065 4.96774C50.0753 5.1828 49.5161 5.51613 49.129 5.96774C48.7419 6.39785 48.5484 6.94624 48.5484 7.6129C48.5484 8.47312 48.828 9.08602 49.3871 9.45161C49.9462 9.8172 50.8495 10.1075 52.0968 10.3226L54.129 10.6452C55.3978 10.8387 56.5484 11.1828 57.5806 11.6774C58.6344 12.172 59.4624 12.8602 60.0645 13.7419C60.6882 14.6237 61 15.7849 61 17.2258C61 18.4516 60.7419 19.5054 60.2258 20.3871C59.7097 21.2473 58.9892 21.9462 58.0645 22.4839C57.1613 23 56.1075 23.3763 54.9032 23.6129C53.7204 23.871 52.4409 24 51.0645 24C50.0968 24 49.1398 23.9355 48.1936 23.8065C47.2688 23.6989 46.4086 23.5484 45.6129 23.3548C44.8172 23.1613 44.1613 22.957 43.6452 22.7419V17.6774Z" fill="#882EFD"/>
<path d="M22.5117 0.387146H41.7375V5.35489H34.9633V23.613H29.2537V5.35489H22.5117V0.387146Z" fill="#882EFD"/>
<path d="M0 23.613L2.58065 8.38715C2.86021 6.70973 3.31183 5.33339 3.93548 4.25812C4.55914 3.18285 5.33333 2.34414 6.25806 1.74199C7.2043 1.13984 8.31183 0.720488 9.58065 0.483929C10.8495 0.247369 12.2688 0.129089 13.8387 0.129089C14.7419 0.129089 15.7204 0.182853 16.7742 0.29038C17.828 0.397906 18.7849 0.548444 19.6452 0.741992L19.7097 1.12909C19.6237 1.51619 19.5591 2.03232 19.5161 2.67748C19.4946 3.32264 19.4731 3.97855 19.4516 4.64522C19.4516 5.31189 19.4516 5.86027 19.4516 6.29038V23.613H13.7419V6.87102C13.7419 6.24737 13.7634 5.67748 13.8064 5.16135C13.871 4.62371 13.9462 4.13984 14.0323 3.70973L14.7742 5.09683C14.5376 5.03232 14.2151 4.98931 13.8064 4.9678C13.4194 4.92479 13.0538 4.90328 12.7097 4.90328C11.6989 4.90328 10.8925 5.04307 10.2903 5.32264C9.68817 5.5807 9.22581 5.97855 8.90322 6.51619C8.60215 7.05382 8.37634 7.74199 8.22581 8.5807L5.74194 23.613H0ZM4.12903 17.6775V13.0968H16.3871V17.6775H4.12903Z" fill="#882EFD"/>
</svg>
